<?xml version="1.0" encoding="UTF-8"?>
<svg id="Layer_1" data-name="Layer 1" xmlns="http://www.w3.org/2000/svg" viewBox="0 0 960 560">
  <defs>
    <style>
      .cls-1 {
        fill: #ce8606;
      }

      .cls-2, .cls-3 {
        fill: #f7a506;
      }

      .cls-3 {
        font-family: TimesNewRomanPS-BoldMT, 'Times New Roman';
        font-size: 38.048px;
        font-weight: 700;
      }
    </style>
  </defs>
  <g>
    <polygon class="cls-2" points="429.117 209.788 444.525 264.138 455.451 226.037 459.934 248.169 471.7 248.169 475.623 264.138 491.311 209.788 484.027 201.103 475.763 247.609 472.681 247.398 461.008 209.507 458.206 209.321 458.019 223.142 456.152 222.395 452.603 201.103 429.117 209.788"/>
    <polygon class="cls-2" points="530.883 209.181 530.883 264.138 521.638 264.138 521.638 240.278 506.977 240.651 506.977 264.138 498.385 264.138 498.385 209.181 507.257 209.181 507.257 231.967 521.825 231.967 521.825 209.181 530.883 209.181"/>
  </g>
  <text class="cls-3" transform="translate(431.381 301.572)"><tspan x="0" y="0">VINU</tspan><tspan x="-53.923" y="45.658">HOLDINGS</tspan></text>
  <path class="cls-1" d="M488.825,242.523c-.241,2.375-2.388,3.863-4.616,4.14-4.356.542-12.283-2.432-9.95-8.116,1.685-4.106,7.337-3.312,10.631-1.889.999.432,1.966.998,2.692,1.815-.876.372-1.756.75-2.513,1.338-1.726-1.078-4.089-1.814-6.144-1.631-2.386.213-3.285,2.562-1.362,4.103,1.73,1.387,6.622,2.693,8.29.796.171-.194.387-.668.538-.787.185-.145.859-.408,1.112-.504.431-.164.881-.281,1.323-.408-.027.369.037.781,0,1.143Z"/>
  <path class="cls-1" d="M492.89,240.806c.473-.019,2.071.092,2.332.483.185.276-.117.43-.221.679-.673,1.596.203,3.058,1.959,3.075,1.958.019,5.916-2.379,6.746-4.172.392-.847.373-1.824-.338-2.499-1.467-1.392-4.355.231-5.755,1.095-.757-.716-1.751-1.086-2.71-1.451,2.855-2.218,8.649-4.784,11.055-.664,3.062,5.242-5.392,10.832-9.904,10.291-3.176-.381-5.107-4.148-3.165-6.836Z"/>
  <path class="cls-1" d="M497.555,239.711c1.185,1.092,1.089,2.864.091,4.051-.152.181-1.046.971-1.218.998-.447.071-1.238-.756-1.313-1.207-.12-.719.518-.774.624-1.24.155-.68-.157-1.225-.791-1.468-1.919-.735-7.166.146-8.89,1.329-.598.41-.394.968-1.176,1.372-.314.162-1.253.416-1.571.307-.189-.065-.185-.744-.164-.932.153-1.401,2.107-3.09,3.302-3.688,3.063-1.534,8.414-2.005,11.107.477Z"/>
  <path class="cls-1" d="M491.896,243.862c.084.949.661,1.727,1.177,2.482-.851.137-1.721.327-2.582.392-1.37.104-2.752-.015-4.084-.392-.037-.15.029-.107.082-.149.217-.169.528-.296.762-.476.511-.393.906-.909,1.228-1.465,1.153.031,2.296-.157,3.417-.391Z"/>
</svg>